# xmcd
#
# Track frame offsets:
#	150
#	30969
#	49567
#	78092
#	93091
#	117986
#	147951
#	178870
#	221066
#	275633
#
# Disc length: 4051 seconds
#
# Revision: 0
# Processed by: cddbd v1.5.2PL0 Copyright (c) Steve Scherf et al.
# Submitted via: audiograbber 1.83.01
#
DISCID=820fd10a
DTITLE=Grateful Dead - 92-03-24 The Palace, Auburn Hills MI
DYEAR=1900
DGENRE=
TTITLE0=Touch Of Grey
TTITLE1=Greatest Story Ever Told
TTITLE2=New Speedway Boogie
TTITLE3=Me and My Uncle
TTITLE4=Big River
TTITLE5=Way To Go Home
TTITLE6=So Many Roads
TTITLE7=Corrina
TTITLE8=China Cat Sunflower > I Know You Rider
TTITLE9=The Weight
EXTD=
EXTT0=
EXTT1=
EXTT2=
EXTT3=
EXTT4=
EXTT5=
EXTT6=
EXTT7=
EXTT8=
EXTT9=
PLAYORDER=
